<?xml version="1.0" ?><!DOCTYPE svg  PUBLIC '-//W3C//DTD SVG 1.1//EN'  'http://www.w3.org/Graphics/SVG/1.1/DTD/svg11.dtd'><svg height="32px" id="Layer_2" style="enable-background:new 0 0 32 32;" version="1.1" viewBox="0 0 32 32" width="32px" xml:space="preserve" xmlns="http://www.w3.org/2000/svg" xmlns:xlink="http://www.w3.org/1999/xlink"><style type="text/css">
<![CDATA[
	.st0{fill:none;stroke:#545454;stroke-width:0.5;stroke-miterlimit:10;}
	.st1{fill:none;stroke:#545454;stroke-miterlimit:10;}
	.st2{fill:#545454;}
	.st3{fill:none;stroke:#545454;stroke-linecap:round;stroke-miterlimit:10;}
	.st4{fill-rule:evenodd;clip-rule:evenodd;fill:none;stroke:#545454;stroke-width:0.5;stroke-miterlimit:10;}
]]>
</style><g><path class="st2" d="M24.699,12.146c0,0.835,0,1.664,0,2.554c0.896,0,1.707,0,2.568,0c0,0.547,0,1.032,0,1.581   c-0.832,0-1.643,0-2.541,0c0,0.89,0,1.717,0,2.583c-0.557,0-1.025,0-1.582,0c0-0.835,0-1.664,0-2.555c-0.896,0-1.709,0-2.57,0   c0-0.548,0-1.032,0-1.582c0.832,0,1.645,0,2.566,0c0-0.923,0-1.732,0-2.581C23.674,12.146,24.141,12.146,24.699,12.146    M25.199,11.646h-0.5h-1.559h-0.5v0.5v2.081h-2.066h-0.5v0.5v1.582v0.5h0.5h2.07v2.055v0.5h0.5h1.582h0.5v-0.5v-2.083h2.041h0.5   v-0.5V14.7v-0.5h-0.5h-2.068v-2.054V11.646L25.199,11.646z"/></g><g><path class="st2" d="M16.174,5.686c1.436,0,2.897,0.022,4.42,0.022c-0.87,0.656-1.55,1.423-2.677,1.423   c-0.198,0-0.411-0.023-0.642-0.076c0.943,0.91,1.471,1.784,1.576,2.913c0.141,1.532-0.342,2.774-1.484,3.781   c-0.412,0.361-0.854,0.695-1.215,1.102c-0.578,0.648-0.52,1.28,0.143,1.851c0.639,0.55,1.334,1.04,1.961,1.602   c2.098,1.883,2.086,4.61-0.016,6.499c-1.33,1.193-2.949,1.713-4.68,1.873c-0.433,0.04-0.865,0.063-1.297,0.063   c-1,0-1.994-0.126-2.962-0.469c-1.927-0.68-2.985-2.033-2.876-3.772c0.082-1.336,0.84-2.281,1.922-2.99   c1.442-0.943,3.088-1.186,4.75-1.356c0.064-0.006,0.13-0.009,0.203-0.009c0.129,0,0.282,0.007,0.5,0.007   c-0.666-0.897-1.021-1.738-0.594-2.739c-0.683-0.068-1.321-0.072-1.927-0.207c-1.813-0.404-3.014-1.512-3.378-3.35   c-0.364-1.829,0.123-3.448,1.571-4.684c1.058-0.902,2.349-1.383,3.704-1.435C14.172,5.696,15.166,5.686,16.174,5.686    M13.705,14.532c0.339,0,0.681-0.071,1.01-0.212c1.045-0.45,1.57-1.285,1.559-2.603c-0.033-0.247-0.064-0.611-0.133-0.967   C15.92,9.595,15.52,8.51,14.664,7.663c-0.548-0.541-1.235-0.794-1.896-0.794c-1.035,0-2.003,0.623-2.256,1.739   c-0.428,1.889,0.048,3.619,1.344,5.067C12.371,14.25,13.03,14.532,13.705,14.532 M13.547,25.783c2.488,0,4.656-1.873,4.656-3.253   c0-1.438-1.895-3.687-4.516-3.857c-0.139-0.009-0.277-0.014-0.414-0.014c-2.437,0-4.44,1.401-4.56,3.257   c-0.128,1.96,1.894,3.688,4.515,3.856C13.335,25.779,13.441,25.783,13.547,25.783 M16.174,5.186c-1.174,0-2.132,0.016-3.015,0.049   c-1.499,0.058-2.886,0.595-4.01,1.555C7.603,8.107,7.002,9.893,7.412,11.95c0.394,1.986,1.693,3.279,3.76,3.74   c0.45,0.1,0.896,0.132,1.367,0.166c0.005,0,0.01,0.001,0.016,0.001c-0.115,0.676,0.059,1.275,0.343,1.812   c-1.625,0.172-3.323,0.438-4.823,1.42c-1.342,0.878-2.063,2.015-2.147,3.378c-0.123,1.953,1.047,3.512,3.209,4.274   c0.945,0.334,1.968,0.497,3.128,0.497c0.425,0,0.864-0.021,1.343-0.065c2.056-0.19,3.681-0.844,4.968-1.999   c1.128-1.014,1.749-2.305,1.749-3.637c-0.001-1.323-0.616-2.604-1.733-3.606c-0.354-0.317-0.729-0.612-1.092-0.897   c-0.296-0.233-0.593-0.466-0.877-0.711c-0.23-0.198-0.354-0.389-0.364-0.564c-0.012-0.168,0.079-0.361,0.269-0.574   c0.24-0.27,0.523-0.509,0.824-0.762c0.116-0.099,0.233-0.196,0.348-0.297c1.251-1.103,1.807-2.517,1.652-4.203   c-0.079-0.847-0.373-1.596-0.928-2.335c0.819-0.146,1.421-0.635,2.006-1.109c0.152-0.124,0.306-0.249,0.467-0.37l1.193-0.899   h-1.494c-0.771,0-1.526-0.006-2.271-0.012C17.598,5.19,16.883,5.186,16.174,5.186L16.174,5.186z M13.705,14.032   c-0.562,0-1.072-0.238-1.476-0.689C11.024,11.995,10.61,10.44,11,8.719c0.187-0.819,0.88-1.35,1.769-1.35   c0.571,0,1.12,0.23,1.544,0.649c0.671,0.664,1.096,1.562,1.337,2.826c0.046,0.24,0.074,0.484,0.098,0.689l0.026,0.215   c0.003,1.085-0.385,1.736-1.257,2.112C14.252,13.975,13.979,14.032,13.705,14.032L13.705,14.032z M13.547,25.283   c-0.095,0-0.19-0.004-0.286-0.01c-1.16-0.075-2.225-0.479-2.996-1.138c-0.729-0.624-1.104-1.4-1.052-2.188   c0.101-1.563,1.885-2.789,4.061-2.789c0.127,0,0.254,0.004,0.382,0.013c2.31,0.15,4.048,2.141,4.048,3.358   C17.703,23.592,15.801,25.283,13.547,25.283L13.547,25.283z"/></g></svg>